G75*
%MOIN*%
%OFA0B0*%
%FSLAX24Y24*%
%IPPOS*%
%LPD*%
%AMOC8*
5,1,8,0,0,1.08239X$1,22.5*
%
%ADD10OC8,0.1250*%
%ADD11C,0.0360*%
%ADD12C,0.0100*%
%ADD13C,0.0400*%
D10*
X001150Y001488D03*
X001150Y002988D03*
X001150Y004488D03*
D11*
X003650Y002988D03*
X004650Y002988D03*
X006650Y002988D03*
X004150Y001488D03*
D12*
X001945Y001159D02*
X001724Y000938D01*
X011700Y000938D01*
X011700Y005038D01*
X001724Y005038D01*
X001945Y004818D01*
X001945Y004159D01*
X001510Y003724D01*
X001925Y003309D01*
X001925Y003038D01*
X001200Y003038D01*
X001200Y002938D01*
X001925Y002938D01*
X001925Y002667D01*
X001510Y002253D01*
X001945Y001818D01*
X001945Y001159D01*
X001945Y001178D02*
X003985Y001178D01*
X003952Y001192D02*
X004080Y001138D01*
X004220Y001138D01*
X004348Y001192D01*
X004425Y001268D01*
X007741Y001268D01*
X007870Y001397D01*
X008751Y002278D01*
X008864Y002278D01*
X009000Y002335D01*
X009104Y002439D01*
X009160Y002575D01*
X009160Y002722D01*
X009104Y002858D01*
X009000Y002962D01*
X008864Y003018D01*
X008716Y003018D01*
X008580Y002962D01*
X008476Y002858D01*
X008420Y002722D01*
X008420Y002575D01*
X008422Y002571D01*
X007559Y001708D01*
X004425Y001708D01*
X004348Y001785D01*
X004220Y001838D01*
X004111Y001838D01*
X003870Y002080D01*
X003870Y002713D01*
X003947Y002790D01*
X004000Y002919D01*
X004000Y003058D01*
X003947Y003187D01*
X003848Y003285D01*
X003720Y003338D01*
X003580Y003338D01*
X003452Y003285D01*
X003353Y003187D01*
X003300Y003058D01*
X003300Y002919D01*
X003353Y002790D01*
X003430Y002713D01*
X003430Y002080D01*
X003430Y001897D01*
X003800Y001527D01*
X003800Y001419D01*
X003853Y001290D01*
X003952Y001192D01*
X003867Y001276D02*
X001945Y001276D01*
X001945Y001375D02*
X003818Y001375D01*
X003800Y001473D02*
X001945Y001473D01*
X001945Y001572D02*
X003755Y001572D01*
X003657Y001670D02*
X001945Y001670D01*
X001945Y001769D02*
X003558Y001769D01*
X003460Y001867D02*
X001895Y001867D01*
X001797Y001966D02*
X003430Y001966D01*
X003430Y002064D02*
X001698Y002064D01*
X001600Y002163D02*
X003430Y002163D01*
X003430Y002261D02*
X001519Y002261D01*
X001618Y002360D02*
X003430Y002360D01*
X003430Y002458D02*
X001716Y002458D01*
X001815Y002557D02*
X003430Y002557D01*
X003430Y002655D02*
X001913Y002655D01*
X001925Y002754D02*
X003390Y002754D01*
X003327Y002852D02*
X001925Y002852D01*
X001925Y003049D02*
X003300Y003049D01*
X003300Y002951D02*
X001200Y002951D01*
X001925Y003148D02*
X003337Y003148D01*
X003413Y003246D02*
X001925Y003246D01*
X001890Y003345D02*
X011700Y003345D01*
X011700Y003246D02*
X003887Y003246D01*
X003963Y003148D02*
X011700Y003148D01*
X011700Y003049D02*
X004000Y003049D01*
X004000Y002951D02*
X008569Y002951D01*
X008474Y002852D02*
X003973Y002852D01*
X003910Y002754D02*
X008433Y002754D01*
X008420Y002655D02*
X003870Y002655D01*
X003870Y002557D02*
X008407Y002557D01*
X008309Y002458D02*
X003870Y002458D01*
X003870Y002360D02*
X008210Y002360D01*
X008112Y002261D02*
X003870Y002261D01*
X003870Y002163D02*
X008013Y002163D01*
X007915Y002064D02*
X003885Y002064D01*
X003984Y001966D02*
X007816Y001966D01*
X007718Y001867D02*
X004082Y001867D01*
X004364Y001769D02*
X007619Y001769D01*
X008045Y001572D02*
X011700Y001572D01*
X011700Y001670D02*
X008143Y001670D01*
X008242Y001769D02*
X011700Y001769D01*
X011700Y001867D02*
X008340Y001867D01*
X008439Y001966D02*
X011700Y001966D01*
X011700Y002064D02*
X008537Y002064D01*
X008636Y002163D02*
X011700Y002163D01*
X011700Y002261D02*
X008734Y002261D01*
X009025Y002360D02*
X011700Y002360D01*
X011700Y002458D02*
X009112Y002458D01*
X009153Y002557D02*
X011700Y002557D01*
X011700Y002655D02*
X009160Y002655D01*
X009147Y002754D02*
X011700Y002754D01*
X011700Y002852D02*
X009106Y002852D01*
X009011Y002951D02*
X011700Y002951D01*
X011700Y003443D02*
X001791Y003443D01*
X001693Y003542D02*
X011700Y003542D01*
X011700Y003640D02*
X001594Y003640D01*
X001525Y003739D02*
X011700Y003739D01*
X011700Y003837D02*
X001623Y003837D01*
X001722Y003936D02*
X011700Y003936D01*
X011700Y004034D02*
X001820Y004034D01*
X001919Y004133D02*
X011700Y004133D01*
X011700Y004231D02*
X001945Y004231D01*
X001945Y004330D02*
X011700Y004330D01*
X011700Y004428D02*
X001945Y004428D01*
X001945Y004527D02*
X011700Y004527D01*
X011700Y004625D02*
X001945Y004625D01*
X001945Y004724D02*
X011700Y004724D01*
X011700Y004822D02*
X001940Y004822D01*
X001842Y004921D02*
X011700Y004921D01*
X011700Y005019D02*
X001743Y005019D01*
X003650Y002988D02*
X003650Y001988D01*
X004150Y001488D01*
X007650Y001488D01*
X008790Y002628D01*
X008790Y002648D01*
X007946Y001473D02*
X011700Y001473D01*
X011700Y001375D02*
X007848Y001375D01*
X007749Y001276D02*
X011700Y001276D01*
X011700Y001178D02*
X004315Y001178D01*
X001865Y001079D02*
X011700Y001079D01*
X011700Y000981D02*
X001767Y000981D01*
D13*
X008790Y002648D03*
M02*
